HIERARCHY
ROOT hip
{
  OFFSET 0 0 0
  CHANNELS 6 Xposition Yposition Zposition Zrotation Yrotation Xrotation
  JOINT abdomen
  {
    OFFSET 0 20.6881 -0.73152
    CHANNELS 3 Zrotation Xrotation Yrotation
    JOINT chest
    {
      OFFSET 0 11.7043 -0.48768
      CHANNELS 3 Zrotation Xrotation Yrotation
      JOINT neck
      {
        OFFSET 0 22.1894 -2.19456
        CHANNELS 3 Zrotation Xrotation Yrotation
        JOINT head
        {
          OFFSET -0.24384 7.07133 1.2192
          CHANNELS 3 Zrotation Xrotation Yrotation
          JOINT leftEye
          {
            OFFSET 4.14528 8.04674 8.04672
            CHANNELS 3 Zrotation Xrotation Yrotation
            End Site
            {
              OFFSET 1 0 0
            }
          }
          JOINT rightEye
          {
            OFFSET -3.6576 8.04674 8.04672
            CHANNELS 3 Zrotation Xrotation Yrotation
            End Site
            {
              OFFSET 1 0 0
            }
          }
        }
      }
      JOINT rCollar
      {
        OFFSET -2.68224 19.2634 -4.8768
        CHANNELS 3 Zrotation Xrotation Yrotation
        JOINT rShldr
        {
          OFFSET -8.77824 -1.95073 1.46304
          CHANNELS 3 Zrotation Xrotation Yrotation
          JOINT rForeArm
          {
            OFFSET -28.1742 -1.7115 0.48768
            CHANNELS 3 Zrotation Xrotation Yrotation
            JOINT rHand
            {
              OFFSET -22.5879 0.773209 7.07136
              CHANNELS 3 Zrotation Xrotation Yrotation
              JOINT rThumb1
              {
                OFFSET -1.2192 -0.487915 3.41376
                CHANNELS 3 Zrotation Xrotation Yrotation
                JOINT rThumb2
                {
                  OFFSET -3.37035 -0.52449 3.41376
                  CHANNELS 3 Zrotation Xrotation Yrotation
                  End Site
                  {
                    OFFSET -1.78271 -1.18214 1.43049
                  }
                }
              }
              JOINT rIndex1
              {
                OFFSET -7.75947 0.938293 5.60832
                CHANNELS 3 Zrotation Xrotation Yrotation
                JOINT rIndex2
                {
                  OFFSET -2.54057 -0.884171 1.56538
                  CHANNELS 3 Zrotation Xrotation Yrotation
                  End Site
                  {
                    OFFSET -1.62519 -0.234802 1.16502
                  }
                }
              }
              JOINT rMid1
              {
                OFFSET -8.24714 1.18213 3.41376
                CHANNELS 3 Zrotation Xrotation Yrotation
                JOINT rMid2
                {
                  OFFSET -3.10165 -0.590103 1.0647
                  CHANNELS 3 Zrotation Xrotation Yrotation
                  End Site
                  {
                    OFFSET -2.48547 -0.328903 0.83742
                  }
                }
              }
              JOINT rRing1
              {
                OFFSET -8.82822 0.546677 1.51678
                CHANNELS 3 Zrotation Xrotation Yrotation
                JOINT rRing2
                {
                  OFFSET -2.60934 -0.819778 -0.0198488
                  CHANNELS 3 Zrotation Xrotation Yrotation
                  End Site
                  {
                    OFFSET -2.33842 -0.294052 0.168128
                  }
                }
              }
              JOINT rPinky1
              {
                OFFSET -8.27202 -0.0477905 -0.4584
                CHANNELS 3 Zrotation Xrotation Yrotation
                JOINT rPinky2
                {
                  OFFSET -1.82734 -0.647385 -0.700984
                  CHANNELS 3 Zrotation Xrotation Yrotation
                  End Site
                  {
                    OFFSET -1.69225 -0.51767 -0.607171
                  }
                }
              }
            }
          }
        }
      }
      JOINT lCollar
      {
        OFFSET 2.68224 19.2634 -4.8768
        CHANNELS 3 Zrotation Xrotation Yrotation
        JOINT lShldr
        {
          OFFSET 8.77824 -1.95073 1.46304
          CHANNELS 3 Zrotation Xrotation Yrotation
          JOINT lForeArm
          {
            OFFSET 28.1742 -1.7115 0.48768
            CHANNELS 3 Zrotation Xrotation Yrotation
            JOINT lHand
            {
              OFFSET 22.5879 0.773209 7.07136
              CHANNELS 3 Zrotation Xrotation Yrotation
              JOINT lThumb1
              {
                OFFSET 1.2192 -0.487915 3.41376
                CHANNELS 3 Zrotation Xrotation Yrotation
                JOINT lThumb2
                {
                  OFFSET 3.37035 -0.52449 3.41376
                  CHANNELS 3 Zrotation Xrotation Yrotation
                  End Site
                  {
                    OFFSET 1.78271 -1.18214 1.43049
                  }
                }
              }
              JOINT lIndex1
              {
                OFFSET 7.75947 0.938293 5.60832
                CHANNELS 3 Zrotation Xrotation Yrotation
                JOINT lIndex2
                {
                  OFFSET 2.54057 -0.884171 1.56538
                  CHANNELS 3 Zrotation Xrotation Yrotation
                  End Site
                  {
                    OFFSET 1.62519 -0.234802 1.16502
                  }
                }
              }
              JOINT lMid1
              {
                OFFSET 8.24714 1.18213 3.41376
                CHANNELS 3 Zrotation Xrotation Yrotation
                JOINT lMid2
                {
                  OFFSET 3.10165 -0.590103 1.0647
                  CHANNELS 3 Zrotation Xrotation Yrotation
                  End Site
                  {
                    OFFSET 2.48547 -0.328903 0.83742
                  }
                }
              }
              JOINT lRing1
              {
                OFFSET 8.82822 0.546677 1.51678
                CHANNELS 3 Zrotation Xrotation Yrotation
                JOINT lRing2
                {
                  OFFSET 2.60934 -0.819778 -0.0198488
                  CHANNELS 3 Zrotation Xrotation Yrotation
                  End Site
                  {
                    OFFSET 2.33842 -0.294052 0.168128
                  }
                }
              }
              JOINT lPinky1
              {
                OFFSET 8.27202 -0.0477905 -0.4584
                CHANNELS 3 Zrotation Xrotation Yrotation
                JOINT lPinky2
                {
                  OFFSET 1.82734 -0.647385 -0.700984
                  CHANNELS 3 Zrotation Xrotation Yrotation
                  End Site
                  {
                    OFFSET 1.69225 -0.51767 -0.607171
                  }
                }
              }
            }
          }
        }
      }
    }
  }
  JOINT rButtock
  {
    OFFSET -8.77824 4.35084 1.2192
    CHANNELS 3 Zrotation Xrotation Yrotation
    JOINT rThigh
    {
      OFFSET 0 -1.70687 -2.19456
      CHANNELS 3 Zrotation Xrotation Yrotation
      JOINT rShin
      {
        OFFSET 0 -36.8199 0.73152
        CHANNELS 3 Zrotation Xrotation Yrotation
        JOINT rFoot
        {
          OFFSET 0.73152 -45.1104 -5.12064
          CHANNELS 3 Zrotation Xrotation Yrotation
          End Site
          {
            OFFSET -1.1221 -3.69964 12.103
          }
        }
      }
    }
  }
  JOINT lButtock
  {
    OFFSET 8.77824 4.35084 1.2192
    CHANNELS 3 Zrotation Xrotation Yrotation
    JOINT lThigh
    {
      OFFSET 0 -1.70687 -2.19456
      CHANNELS 3 Zrotation Xrotation Yrotation
      JOINT lShin
      {
        OFFSET 0 -36.8199 0.73152
        CHANNELS 3 Zrotation Xrotation Yrotation
        JOINT lFoot
        {
          OFFSET -0.73152 -45.1104 -5.12064
          CHANNELS 3 Zrotation Xrotation Yrotation
          End Site
          {
            OFFSET 1.1221 -3.69964 12.103
          }
        }
      }
    }
  }
}
MOTION
Frames:	8
Frame Time:	0.00833333
-31.5988 83.5847 22.6109 -6.7085 32.7754 5.5233 -22.6195 -1.92444 -25.1389 3.60102 0.114868 -6.88248 -2.82447 9.96147 22.6945 -14.0084 -14.8747 42.928 -0.0 0.0 0.0 -0.0 0.0 0.0 -2.31919e-13 -1.78089e-13 2.03257e-13 44.6993 -25.3042 45.8021 -27.2984 -43.1608 89.799 -0.0321235 5.10925 0.719987 1.97099e-10 -7.12753e-10 -2.72998e-09 3.32456e-10 -1.23621e-09 -4.72141e-09 1.97111e-10 -7.12749e-10 -2.72998e-09 7.73091 5.47488 0.417314 1.971e-10 -7.12753e-10 -2.72998e-09 2.90554 0.965183 0.102902 1.97114e-10 -7.12749e-10 -2.72998e-09 10.2786 0.731801 0.0259123 1.97103e-10 -7.12754e-10 -2.72998e-09 2.22167 -0.733487 -0.20892 -2.3196e-13 -1.78133e-13 2.03059e-13 -17.2758 -9.91395 -138.537 16.7659 -9.41879 -31.3069 0.00364894 1.72455 -0.242443 1.23135e-09 1.52841e-09 -5.83053e-10 2.12773e-09 2.64719e-09 -1.0133e-09 1.23134e-09 1.52841e-09 -5.83047e-10 -7.73091 5.47488 -0.417314 1.23135e-09 1.52841e-09 -5.83053e-10 -2.90554 0.965183 -0.102902 1.23134e-09 1.52841e-09 -5.83052e-10 -10.2786 0.731801 -0.0259123 1.23135e-09 1.52841e-09 -5.83066e-10 -2.22167 -0.733487 0.20892 -2.03217e-16 0.0 -3.88251e-19 12.7631 -29.2706 19.4321 -0.148027 27.3893 0.592521 0.879738 3.52669 25.6907 2.03217e-16 0.0 3.88251e-19 24.2433 -2.18249 16.0186 0.133375 32.5752 -0.766839 -4.17251 20.6731 14.1884
-31.6297 83.5691 22.5356 -6.82 32.7531 5.5579 -22.5319 -1.82069 -25.2196 3.66107 0.120337 -6.91268 -3.00472 9.77925 22.7371 -13.9035 -14.8133 43.0632 -0.0 0.0 0.0 -0.0 0.0 0.0 -2.0305e-13 -1.89135e-13 2.40166e-13 44.5383 -25.3707 45.9542 -27.3139 -43.1132 89.7069 -0.0301713 4.94033 0.696066 -8.63854e-11 -7.0168e-10 -2.00144e-09 -1.55617e-10 -1.21666e-09 -3.45972e-09 -8.63728e-11 -7.01678e-10 -2.00145e-09 7.73091 5.47488 0.417314 -8.63846e-11 -7.01681e-10 -2.00145e-09 2.90554 0.965183 0.102902 -8.63717e-11 -7.01677e-10 -2.00145e-09 10.2786 0.731801 0.0259123 -8.6383e-11 -7.01681e-10 -2.00144e-09 2.22167 -0.733487 -0.20892 -2.03092e-13 -1.89177e-13 2.39978e-13 -17.4243 -10.0107 -138.416 16.744 -9.39729 -31.2595 0.00399754 1.80192 -0.253328 6.53138e-10 1.72474e-09 -6.79067e-10 1.12786e-09 2.98594e-09 -1.17763e-09 6.53129e-10 1.72473e-09 -6.79059e-10 -7.73091 5.47488 -0.417314 6.53141e-10 1.72473e-09 -6.79065e-10 -2.90554 0.965183 -0.102902 6.5313e-10 1.72473e-09 -6.79066e-10 -10.2786 0.731801 -0.0259123 6.53143e-10 1.72473e-09 -6.7908e-10 -2.22167 -0.733487 0.20892 -2.03217e-16 0.0 -3.88251e-19 12.8195 -29.2848 19.5206 -0.147321 27.3235 0.589839 0.894526 3.48713 25.6065 2.03217e-16 0.0 3.88251e-19 24.3215 -2.27403 16.14 0.134467 32.6463 -0.769867 -4.11436 20.8457 13.8763
-31.6467 83.5663 22.4617 -6.8787 32.7572 5.561 -22.3676 -1.70185 -25.3308 3.7299 0.125789 -6.95378 -3.2203 9.52895 22.7793 -13.7993 -14.7053 43.2134 -0.0 0.0 0.0 -0.0 0.0 0.0 -1.03615e-13 -1.7382e-13 2.3637e-13 44.3941 -25.3915 46.1633 -27.3299 -43.0633 89.6105 -0.0278314 4.70919 0.663368 -5.50326e-10 -5.97463e-10 -4.86309e-10 -9.53438e-10 -1.03558e-09 -8.37028e-10 -5.50313e-10 -5.97465e-10 -4.86315e-10 7.73091 5.47488 0.417314 -5.50325e-10 -5.97466e-10 -4.86316e-10 2.90554 0.965183 0.102902 -5.50314e-10 -5.97464e-10 -4.86314e-10 10.2786 0.731801 0.0259123 -5.50326e-10 -5.97466e-10 -4.86309e-10 2.22167 -0.733487 -0.20892 -1.03659e-13 -1.73854e-13 2.362e-13 -17.5702 -10.1068 -138.226 16.7158 -9.36965 -31.1987 0.00438321 1.88278 -0.264704 -5.47098e-10 1.9885e-09 -8.86286e-10 -9.47599e-10 3.4411e-09 -1.53282e-09 -5.47106e-10 1.9885e-09 -8.86276e-10 -7.73091 5.47488 -0.417314 -5.47095e-10 1.9885e-09 -8.86282e-10 -2.90554 0.965183 -0.102902 -5.47106e-10 1.9885e-09 -8.86285e-10 -10.2786 0.731801 -0.0259123 -5.47093e-10 1.9885e-09 -8.86299e-10 -2.22167 -0.733487 0.20892 -2.03217e-16 0.0 -3.88251e-19 12.9123 -29.294 19.6163 -0.146618 27.2318 0.586821 0.902073 3.46056 25.5108 2.03217e-16 0.0 3.88251e-19 24.471 -2.3936 16.317 0.135857 32.7473 -0.77497 -4.01705 21.0689 13.4093
-31.6662 83.5885 22.3998 -6.9759 32.7339 5.504 -22.1999 -1.58084 -25.4102 3.78282 0.125009 -6.98566 -3.38848 9.31298 22.8074 -13.7364 -14.5926 43.3232 -0.0 0.0 0.0 -0.0 0.0 0.0 2.93773e-15 -1.47126e-13 2.26691e-13 44.2899 -25.39 46.3379 -27.3462 -43.0123 89.5122 -0.0243099 4.38643 0.617724 -9.94633e-10 -4.95104e-10 9.75231e-10 -1.71704e-09 -8.57867e-10 1.69276e-09 -9.94621e-10 -4.95109e-10 9.75225e-10 7.73091 5.47488 0.417314 -9.94633e-10 -4.95108e-10 9.75221e-10 2.90554 0.965183 0.102902 -9.94623e-10 -4.95108e-10 9.75225e-10 10.2786 0.731801 0.0259123 -9.94636e-10 -4.95107e-10 9.75229e-10 2.22167 -0.733487 -0.20892 2.88675e-15 -1.4715e-13 2.26535e-13 -17.6812 -10.1768 -138.053 16.683 -9.33763 -31.1283 0.00461903 1.93183 -0.271606 -1.74125e-09 2.22719e-09 -1.0714e-09 -3.01247e-09 3.85297e-09 -1.84977e-09 -1.74126e-09 2.22719e-09 -1.07139e-09 -7.73091 5.47488 -0.417314 -1.74125e-09 2.22719e-09 -1.07139e-09 -2.90554 0.965183 -0.102902 -1.74126e-09 2.22719e-09 -1.0714e-09 -10.2786 0.731801 -0.0259123 -1.74125e-09 2.22719e-09 -1.07141e-09 -2.22167 -0.733487 0.20892 -2.03217e-16 0.0 -3.88251e-19 13.0125 -29.312 19.7068 -0.14594 27.134 0.584007 0.901008 3.45048 25.4057 2.03217e-16 0.0 3.88251e-19 24.6404 -2.52998 16.5082 0.137231 32.8571 -0.78093 -3.90149 21.2665 12.9125
-31.6797 83.6028 22.3253 -7.0251 32.7354 5.4956 -22.1024 -1.47034 -25.3953 3.79515 0.111781 -6.98823 -3.4269 9.23358 22.8068 -13.7551 -14.5163 43.3374 -0.0 0.0 0.0 -0.0 0.0 0.0 5.31597e-14 -1.24035e-13 2.45946e-13 44.2485 -25.3905 46.3867 -27.3623 -42.9614 89.4141 -0.0191031 3.94269 0.554994 -1.21922e-09 -4.89602e-10 1.54298e-09 -2.10246e-09 -8.48448e-10 2.67575e-09 -1.21921e-09 -4.89609e-10 1.54298e-09 7.73091 5.47488 0.417314 -1.21922e-09 -4.89608e-10 1.54297e-09 2.90554 0.965183 0.102902 -1.21921e-09 -4.89608e-10 1.54298e-09 10.2786 0.731801 0.0259123 -1.21922e-09 -4.89606e-10 1.54298e-09 2.22167 -0.733487 -0.20892 5.30943e-14 -1.24049e-13 2.45797e-13 -17.7257 -10.1965 -137.983 16.6475 -9.30299 -31.0517 0.00449406 1.91379 -0.269066 -2.30121e-09 2.34827e-09 -1.1011e-09 -3.98056e-09 4.06191e-09 -1.89938e-09 -2.30122e-09 2.34827e-09 -1.10109e-09 -7.73091 5.47488 -0.417314 -2.30121e-09 2.34827e-09 -1.10109e-09 -2.90554 0.965183 -0.102902 -2.30122e-09 2.34827e-09 -1.1011e-09 -10.2786 0.731801 -0.0259123 -2.30121e-09 2.34827e-09 -1.10111e-09 -2.22167 -0.733487 0.20892 -2.03217e-16 0.0 -3.88251e-19 13.091 -29.3528 19.7794 -0.1453 27.0498 0.581933 0.890002 3.4604 25.2933 2.03217e-16 0.0 3.88251e-19 24.7779 -2.67213 16.6724 0.138254 32.9546 -0.786519 -3.79272 21.3628 12.512
-31.7028 83.6135 22.2313 -7.0803 32.7721 5.5031 -22.1167 -1.38661 -25.2138 3.72523 0.0679996 -6.93836 -3.22655 9.39871 22.7543 -13.926 -14.5015 43.1783 -0.0 0.0 0.0 -0.0 0.0 0.0 2.21671e-14 -1.11068e-13 3.29229e-13 44.2967 -25.4221 46.192 -27.3743 -42.9218 89.3394 -0.0125466 3.31945 0.46699 -1.14389e-09 -6.66171e-10 7.87338e-10 -1.97186e-09 -1.15525e-09 1.36845e-09 -1.14388e-09 -6.66178e-10 7.8733e-10 7.73091 5.47488 0.417314 -1.14388e-09 -6.66177e-10 7.87333e-10 2.90554 0.965183 0.102902 -1.14388e-09 -6.66177e-10 7.8733e-10 10.2786 0.731801 0.0259123 -1.14389e-09 -6.66175e-10 7.87333e-10 2.22167 -0.733487 -0.20892 2.20752e-14 -1.11074e-13 3.29072e-13 -17.651 -10.1345 -138.098 16.6126 -9.26897 -30.9768 0.00370295 1.76014 -0.247448 -2.04073e-09 2.40748e-09 -9.02376e-10 -3.52972e-09 4.16434e-09 -1.5555e-09 -2.04074e-09 2.40748e-09 -9.02364e-10 -7.73091 5.47488 -0.417314 -2.04073e-09 2.40748e-09 -9.02371e-10 -2.90554 0.965183 -0.102902 -2.04074e-09 2.40748e-09 -9.02376e-10 -10.2786 0.731801 -0.0259123 -2.04073e-09 2.40748e-09 -9.02387e-10 -2.22167 -0.733487 0.20892 -2.03217e-16 0.0 -3.88251e-19 13.1423 -29.4282 19.8159 -0.144592 26.9793 0.581169 0.855468 3.5201 25.187 2.03217e-16 0.0 3.88251e-19 24.8797 -2.82913 16.8024 0.138817 33.0408 -0.79158 -3.70013 21.3443 12.2392
-31.7465 83.6215 22.1259 -7.2095 32.837 5.4547 -22.1968 -1.31821 -24.9176 3.59809 0.00244289 -6.85272 -2.85971 9.72723 22.6643 -14.2073 -14.5207 42.8964 -0.0 0.0 0.0 -0.0 0.0 0.0 -5.35461e-14 -9.93941e-14 4.49365e-13 44.4152 -25.4632 45.8331 -27.3837 -42.8893 89.2792 -0.00669572 2.54924 0.358435 -8.84297e-10 -9.54183e-10 -7.75081e-10 -1.52407e-09 -1.65568e-09 -1.33512e-09 -8.84287e-10 -9.54191e-10 -7.7509e-10 7.73091 5.47488 0.417314 -8.8429e-10 -9.54189e-10 -7.75077e-10 2.90554 0.965183 0.102902 -8.84287e-10 -9.5419e-10 -7.7509e-10 10.2786 0.731801 0.0259123 -8.84302e-10 -9.54188e-10 -7.75089e-10 2.22167 -0.733487 -0.20892 -5.36738e-14 -9.9391e-14 4.49191e-13 -17.4881 -10.0115 -138.334 16.5763 -9.23369 -30.8994 0.00267588 1.50943 -0.212182 -1.30106e-09 2.42737e-09 -5.58817e-10 -2.25007e-09 4.19908e-09 -9.62016e-10 -1.30106e-09 2.42737e-09 -5.58807e-10 -7.73091 5.47488 -0.417314 -1.30106e-09 2.42737e-09 -5.58815e-10 -2.90554 0.965183 -0.102902 -1.30107e-09 2.42737e-09 -5.58817e-10 -10.2786 0.731801 -0.0259123 -1.30105e-09 2.42737e-09 -5.58825e-10 -2.22167 -0.733487 0.20892 -2.03217e-16 0.0 -3.88251e-19 13.1811 -29.528 19.8278 -0.14384 26.9136 0.581285 0.802852 3.61823 25.0814 2.03217e-16 0.0 3.88251e-19 24.9699 -3.00287 16.919 0.139103 33.1247 -0.796711 -3.61198 21.2492 12.0283
-31.7895 83.6261 21.9968 -7.3134 32.9398 5.4378 -22.286 -1.23622 -24.6305 3.48883 -0.0507522 -6.77081 -2.51686 10.0373 22.5785 -14.4707 -14.5372 42.6281 -0.0 0.0 0.0 -0.0 0.0 0.0 -1.45362e-13 -8.09608e-14 5.47778e-13 44.5587 -25.4639 45.5153 -27.3984 -42.8418 89.1881 -0.0029743 1.73928 0.244467 -5.34147e-10 -1.21488e-09 -2.56512e-09 -9.20075e-10 -2.10882e-09 -4.43263e-09 -5.34139e-10 -1.21489e-09 -2.56513e-09 7.73091 5.47488 0.417314 -5.34138e-10 -1.21489e-09 -2.56511e-09 2.90554 0.965183 0.102902 -5.34137e-10 -1.21489e-09 -2.56513e-09 10.2786 0.731801 0.0259123 -5.34152e-10 -1.21488e-09 -2.56513e-09 2.22167 -0.733487 -0.20892 -1.45526e-13 -8.095e-14 5.47587e-13 -17.3322 -9.88255 -138.549 16.5324 -9.19119 -30.8053 0.0020124 1.28685 -0.180885 -2.45312e-10 2.26562e-09 -1.71995e-10 -4.23886e-10 3.92004e-09 -2.94809e-10 -2.45317e-10 2.26563e-09 -1.71987e-10 -7.73091 5.47488 -0.417314 -2.45311e-10 2.26562e-09 -1.71996e-10 -2.90554 0.965183 -0.102902 -2.45319e-10 2.26562e-09 -1.71996e-10 -10.2786 0.731801 -0.0259123 -2.45306e-10 2.26562e-09 -1.72e-10 -2.22167 -0.733487 0.20892 -2.03217e-16 0.0 -3.88251e-19 13.2089 -29.6337 19.8482 -0.143244 26.8594 0.581309 0.759187 3.69658 24.9504 2.03217e-16 0.0 3.88251e-19 25.0389 -3.17167 17.0228 0.139203 33.1974 -0.801802 -3.52363 21.0801 11.8612
